HIERARCHY
ROOT Hips
{
	OFFSET 0.00000 0.00000 0.00000
	CHANNELS 6 Xposition Yposition Zposition Zrotation Yrotation Xrotation 
	JOINT LHipJoint
	{
		OFFSET 0 0 0
		CHANNELS 3 Zrotation Yrotation Xrotation
		JOINT LeftHip
		{
			OFFSET 1.48831 -1.59570 0.95625
			CHANNELS 3 Zrotation Yrotation Xrotation
			JOINT LeftKnee
			{
				OFFSET 2.20856 -6.06797 0.00000
				CHANNELS 3 Zrotation Yrotation Xrotation
				JOINT LeftAnkle
				{
					OFFSET 2.62924 -7.22379 0.00000
					CHANNELS 3 Zrotation Yrotation Xrotation
					JOINT LeftToe
					{
						OFFSET 0.16802 -0.46163 2.41673
						CHANNELS 3 Zrotation Yrotation Xrotation
						End Site
						{
							OFFSET 0.00000 -0.00000 1.23760
						}
					}
				}
			}
		}
	}
	JOINT RHipJoint
	{
		OFFSET 0 0 0
		CHANNELS 3 Zrotation Yrotation Xrotation
		JOINT RightHip
		{
			OFFSET -1.56796 -1.59570 0.95625
			CHANNELS 3 Zrotation Yrotation Xrotation
			JOINT RightKnee
			{
				OFFSET -2.29239 -6.29829 0.00000
				CHANNELS 3 Zrotation Yrotation Xrotation
				JOINT RightAnkle
				{
					OFFSET -2.66963 -7.33475 0.00000
					CHANNELS 3 Zrotation Yrotation Xrotation
					JOINT RightToe
					{
						OFFSET -0.18185 -0.49964 2.34359
						CHANNELS 3 Zrotation Yrotation Xrotation
						End Site
						{
							OFFSET -0.00000 -0.00000 1.20477
						}
					}
				}
			}
		}
	}
	JOINT lowerback
	{
		OFFSET 0 0 0
		CHANNELS 3 Zrotation Yrotation Xrotation
		JOINT Chest
		{
			OFFSET 0.03505 2.15832 -0.34324
			CHANNELS 3 Zrotation Yrotation Xrotation
			JOINT Chest2
			{
				OFFSET -0.01089 2.17963 0.04689
				CHANNELS 3 Zrotation Yrotation Xrotation
				JOINT lowerneck
				{
					OFFSET 0 0 0
					CHANNELS 3 Zrotation Yrotation Xrotation
					JOINT Neck
					{
						OFFSET 0.04686 1.69404 0.22159
						CHANNELS 3 Zrotation Yrotation Xrotation
						JOINT Head
						{
							OFFSET 0.00265 1.69305 -0.01513
							CHANNELS 3 Zrotation Yrotation Xrotation
							End Site
							{
								OFFSET -0.00415 1.80215 -0.03034
							}
						}
					}
				}
				JOINT LeftCollar
				{
					OFFSET 0 0 0
					CHANNELS 3 Zrotation Yrotation Xrotation
					JOINT LeftShoulder
					{
						OFFSET 3.67184 1.11724 -0.19002
CHANNELS 3 Zrotation Xrotation Yrotation
						JOINT LeftElbow
						{
OFFSET 0 -5.177140 -0.000000
CHANNELS 3 Zrotation Xrotation Yrotation
							JOINT LeftWrist
							{
OFFSET 0 -3.436790 -0.000000
CHANNELS 3 Zrotation Xrotation Yrotation
								JOINT lhand
								{
									OFFSET 0 0 0
CHANNELS 3 Zrotation Xrotation Yrotation
									JOINT LFingers
									{
OFFSET 0 -0.573120 -0.000000
CHANNELS 3 Zrotation Xrotation Yrotation
										End Site
										{
OFFSET 0 -0.462060 -0.000000
										}
									}
								}
								JOINT LThumb
								{
OFFSET 0 0.000000 0.000000
CHANNELS 3 Zrotation Xrotation Yrotation
									End Site
									{
OFFSET 0 -0.469120 0.469120
									}
								}
							}
						}
					}
				}
				JOINT RightCollar
				{
					OFFSET 0 0 0
					CHANNELS 3 Zrotation Yrotation Xrotation
					JOINT RightShoulder
					{
						OFFSET -3.59596 0.95831 -0.26050
CHANNELS 3 Zrotation Xrotation Yrotation
						JOINT RightElbow
						{
OFFSET 0 -5.239080 -0.000000
CHANNELS 3 Zrotation Xrotation Yrotation
							JOINT RightWrist
							{
OFFSET 0 -3.464850 -0.000000
CHANNELS 3 Zrotation Xrotation Yrotation
								JOINT rhand
								{
									OFFSET 0 0 0
CHANNELS 3 Zrotation Xrotation Yrotation
									JOINT RFingers
									{
OFFSET 0 -0.608750 -0.000000
CHANNELS 3 Zrotation Xrotation Yrotation
										End Site
										{
OFFSET 0 -0.490790 -0.000000
										}
									}
								}
								JOINT RThumb
								{
OFFSET 0 0.000000 0.000000
CHANNELS 3 Zrotation Xrotation Yrotation
									End Site
									{
OFFSET 0 -0.498290 0.498290
									}
								}
							}
						}
					}
				}
			}
		}
	}
}
MOTION
Frames: 12
Frame Time: 0.008333333333333333
49.673900 15.983500 17.304500 -170.472000 -58.315300 173.763000 0.000000 0.000000 0.000000 -16.948600 5.091900 -11.918800 2.409200 9.670900 27.917300 1.430800 -1.370700 -22.216800 0.007500 0.559800 1.538200 0.000000 0.000000 0.000000 26.834500 5.370600 -13.947500 -3.559200 -11.549500 34.156300 -1.714100 -5.334400 -27.133400 -0.008300 -0.589000 1.618500 5.171300 -0.682400 -4.689900 0.927800 -1.266400 0.734700 -2.035800 -0.550200 3.303300 0.595200 -3.415100 -1.671200 4.228900 -4.625800 -0.461400 1.160600 -2.322200 0.225400 0.000000 0.000000 0.000000 1.831800 0.884600 -21.798900 12.661300 -20.788900 2.331700 18.842900 -16.671800 -9.064600 0.000000 0.000000 0.000000 -7.125000 0.000000 0.000000 -7.041100 39.454800 -0.967800 0.000000 0.000000 0.000000 0.281500 4.283500 20.584500 -15.727600 -25.149900 -3.529400 -20.890900 1.521500 5.624400 0.000000 0.000000 0.000000 7.125000 0.000000 -0.000000 4.874000 35.961200 1.086100
49.683378 15.982206 17.302684 -174.444035 -58.588328 176.623255 0.000000 0.000000 0.000000 -19.300506 5.597329 -10.422109 2.090802 9.052294 25.959365 1.307147 -0.743727 -21.390728 0.001284 0.232658 0.639264 0.000000 0.000000 0.000000 24.553964 5.419488 -14.092575 -3.830990 -11.931916 35.491782 -1.844294 -4.873560 -27.781624 -0.011974 -0.706019 1.940337 2.923519 -0.811697 -4.006540 0.383008 -1.249780 0.823690 -1.326731 -0.575562 3.041491 0.618620 -3.412281 -1.482153 4.180603 -4.609148 -0.708877 1.148096 -2.320400 0.116325 0.000000 0.000000 0.000000 1.792048 0.964040 -21.679613 12.575219 -20.661695 2.301250 18.774469 -16.605920 -9.165946 0.000000 0.000000 0.000000 -7.125000 0.000000 0.000000 -7.115844 39.555175 -0.960549 0.000000 0.000000 0.000000 0.234248 4.341060 20.711819 -15.738346 -25.164614 -3.533945 -20.899796 1.485970 5.528646 0.000000 0.000000 0.000000 7.125000 0.000000 0.000000 4.857245 35.859758 1.094436
49.695411 15.977764 17.300945 -178.325873 -58.819094 179.392476 0.000000 0.000000 0.000000 -21.532280 6.092819 -8.861619 1.782699 8.397245 23.927679 1.181701 -0.253185 -20.476497 0.000161 0.086269 0.236957 0.000000 0.000000 0.000000 22.352621 5.414711 -14.190564 -4.095143 -12.285765 36.750850 -1.964221 -4.479102 -28.383116 -0.014371 -0.773604 2.125969 0.730729 -0.916341 -3.267866 -0.149830 -1.250749 0.923259 -0.633390 -0.609922 2.760991 0.628548 -3.411945 -1.474706 4.173373 -4.608477 -0.713430 1.144401 -2.320261 0.113208 0.000000 0.000000 0.000000 1.773074 0.996533 -21.576811 12.473348 -20.510777 2.265417 18.708893 -16.532713 -9.139015 0.000000 0.000000 0.000000 -7.125000 0.000000 0.000000 -7.168177 39.521802 -0.973530 0.000000 0.000000 0.000000 0.216816 4.376801 20.769585 -15.743292 -25.171379 -3.536070 -20.861826 1.483071 5.451108 0.000000 0.000000 0.000000 7.125000 0.000000 0.000000 4.881570 35.775333 1.109998
49.708240 15.970789 17.299984 -182.195992 -58.976667 182.169748 0.000000 0.000000 0.000000 -23.708451 6.614720 -7.248803 1.481196 7.688613 21.772737 1.054777 0.180018 -19.483963 0.000000 0.018649 0.051294 0.000000 0.000000 0.000000 20.167365 5.361078 -14.294110 -4.357556 -12.621382 37.967635 -2.076511 -4.079790 -28.922358 -0.016249 -0.822859 2.261603 -1.416182 -0.993262 -2.535827 -0.682168 -1.265503 1.027504 0.034371 -0.650879 2.491156 0.588000 -3.402021 -1.519111 4.235997 -4.598198 -0.661894 1.169310 -2.313809 0.138771 0.000000 0.000000 0.000000 1.759890 1.012838 -21.485685 12.398433 -20.399495 2.239256 18.664524 -16.469661 -9.173408 0.000000 0.000000 0.000000 -7.125000 0.000000 0.000000 -7.211919 39.554198 -0.973841 0.000000 0.000000 0.000000 0.204390 4.375338 20.812175 -15.710647 -25.126759 -3.522205 -20.829507 1.503030 5.518261 0.000000 0.000000 0.000000 7.125000 0.000000 0.000000 4.914975 35.845136 1.109202
49.720911 15.962796 17.299368 -185.818499 -59.067619 184.793421 0.000000 0.000000 0.000000 -25.702864 7.132971 -5.768630 1.221920 7.010883 19.747820 0.939551 0.515153 -18.512498 0.000000 -0.000751 -0.002177 0.000000 0.000000 0.000000 18.121395 5.239911 -14.388353 -4.588513 -12.904841 39.013315 -2.170568 -3.693690 -29.344703 -0.018165 -0.869410 2.389662 -3.406146 -1.049028 -1.853839 -1.172920 -1.301153 1.119101 0.653861 -0.700290 2.237462 0.561184 -3.401011 -1.564795 4.259370 -4.600138 -0.583706 1.179348 -2.312782 0.171549 0.000000 0.000000 0.000000 1.742720 1.043510 -21.421840 12.350455 -20.328188 2.222582 18.677314 -16.396979 -9.226400 0.000000 0.000000 0.000000 -7.125000 0.000000 0.000000 -7.209093 39.610442 -0.963393 0.000000 0.000000 0.000000 0.182416 4.363197 20.855162 -15.659634 -25.056922 -3.500513 -20.809209 1.553366 5.677618 0.000000 0.000000 0.000000 7.125000 0.000000 0.000000 4.947418 36.013680 1.096218
49.727065 15.959413 17.297722 -187.256481 -59.105187 185.830098 0.000000 0.000000 0.000000 -26.472964 7.398350 -5.106410 1.107871 6.687553 18.792869 0.885576 0.632991 -18.023017 0.000000 -0.020926 -0.057524 0.000000 0.000000 0.000000 17.313542 5.158019 -14.442080 -4.689908 -13.025916 39.465415 -2.213178 -3.487848 -29.521406 -0.019984 -0.911851 2.506339 -4.184725 -1.060825 -1.576694 -1.377159 -1.313238 1.166957 0.883185 -0.719165 2.145309 0.564886 -3.416451 -1.574813 4.268324 -4.622400 -0.550678 1.180802 -2.323198 0.183894 0.000000 0.000000 0.000000 1.762084 1.055487 -21.422933 12.320284 -20.283273 2.212063 18.679887 -16.390560 -9.232515 0.000000 0.000000 0.000000 -7.125000 0.000000 0.000000 -7.207965 39.617002 -0.962048 0.000000 0.000000 0.000000 0.192905 4.332981 20.817757 -15.595525 -24.969156 -3.473463 -20.796200 1.623964 5.665943 0.000000 0.000000 0.000000 7.125000 0.000000 0.000000 4.957043 36.000438 1.099945
49.729146 15.959235 17.294738 -187.253676 -59.114034 185.803895 0.000000 0.000000 0.000000 -26.452540 7.426783 -5.041072 1.098097 6.658859 18.708545 0.880216 0.630109 -17.968287 0.000000 -0.020254 -0.055595 0.000000 0.000000 0.000000 17.329412 5.145595 -14.433895 -4.697219 -13.034503 39.497928 -2.217768 -3.466463 -29.540689 -0.020784 -0.930276 2.556909 -4.203571 -1.060424 -1.559481 -1.364521 -1.312702 1.189504 0.906802 -0.719791 2.159587 0.538635 -3.431199 -1.537775 4.258145 -4.639280 -0.578797 1.182922 -2.332324 0.169857 0.000000 0.000000 0.000000 1.741679 1.065046 -21.380881 12.322244 -20.286192 2.212770 18.670841 -16.372218 -9.304792 0.000000 0.000000 0.000000 -7.125000 0.000000 0.000000 -7.227110 39.691638 -0.951317 0.000000 0.000000 0.000000 0.144203 4.311238 20.862509 -15.553369 -24.911300 -3.455682 -20.782193 1.620838 5.566651 0.000000 0.000000 0.000000 7.125000 0.000000 0.000000 4.959061 35.894203 1.113278
49.733069 15.958164 17.291273 -187.256778 -59.133791 185.774289 0.000000 0.000000 0.000000 -26.428431 7.441378 -5.024884 1.100284 6.665189 18.727167 0.880664 0.607573 -17.964033 0.000000 -0.028780 -0.079132 0.000000 0.000000 0.000000 17.354325 5.139164 -14.396706 -4.695551 -13.032516 39.490240 -2.216929 -3.505592 -29.552907 -0.019722 -0.906537 2.491801 -4.242276 -1.069565 -1.504073 -1.342373 -1.326847 1.203553 0.951456 -0.727509 2.145033 0.511151 -3.444736 -1.514911 4.223064 -4.655905 -0.560524 1.176655 -2.340060 0.171693 0.000000 0.000000 0.000000 1.713458 1.109523 -21.382345 12.353983 -20.333403 2.223787 18.687034 -16.384082 -9.329160 0.000000 0.000000 0.000000 -7.125000 0.000000 0.000000 -7.216929 39.718373 -0.945173 0.000000 0.000000 0.000000 0.066392 4.317882 20.980941 -15.537849 -24.889986 -3.449131 -20.771011 1.629851 5.628524 0.000000 0.000000 0.000000 7.125000 0.000000 0.000000 4.974491 35.959370 1.108827
49.737914 15.958100 17.287186 -187.253705 -59.156866 185.761155 0.000000 0.000000 0.000000 -26.402217 7.439522 -5.034634 1.103094 6.673528 18.751619 0.880655 0.612263 -17.966181 0.000100 -0.067195 -0.184563 0.000000 0.000000 0.000000 17.387111 5.151117 -14.375614 -4.693261 -13.029851 39.480333 -2.217475 -3.530659 -29.567222 -0.019620 -0.904304 2.485468 -4.280622 -1.081417 -1.468573 -1.322741 -1.343531 1.218415 0.992899 -0.736658 2.142636 0.486829 -3.448807 -1.533452 4.195365 -4.662487 -0.496755 1.171016 -2.341637 0.194292 0.000000 0.000000 0.000000 1.697792 1.126804 -21.428474 12.386797 -20.382208 2.235187 18.777367 -16.516040 -9.224245 0.000000 0.000000 0.000000 -7.125000 0.000000 0.000000 -7.122421 39.616194 -0.950597 0.000000 0.000000 0.000000 -0.005775 4.305995 21.100651 -15.525127 -24.872533 -3.443796 -20.779124 1.624145 5.650934 0.000000 0.000000 0.000000 7.125000 0.000000 0.000000 4.969896 35.983644 1.104825
49.742040 15.958649 17.282960 -187.236771 -59.171763 185.742771 0.000000 0.000000 0.000000 -26.374377 7.387870 -5.033309 1.105271 6.679789 18.770192 0.880229 0.660129 -17.980083 0.000100 -0.062083 -0.170539 0.000000 0.000000 0.000000 17.424701 5.162223 -14.365088 -4.690557 -13.026583 39.468080 -2.218697 -3.531034 -29.575474 -0.021197 -0.940029 2.583830 -4.326147 -1.098532 -1.452480 -1.286788 -1.365892 1.233632 1.054564 -0.748969 2.152429 0.427453 -3.426485 -1.578672 4.194443 -4.635174 -0.398798 1.179043 -2.325268 0.232686 0.000000 0.000000 0.000000 1.657948 1.130657 -21.498552 12.418129 -20.428769 2.246100 18.930150 -16.796138 -8.993331 0.000000 0.000000 0.000000 -7.125000 0.000000 0.000000 -6.955052 39.387080 -0.967443 0.000000 0.000000 0.000000 -0.110602 4.300134 21.258431 -15.526286 -24.874132 -3.444294 -20.776771 1.591777 5.642423 0.000000 0.000000 0.000000 7.125000 0.000000 0.000000 4.971009 35.974600 1.106246
49.746611 15.958806 17.278495 -187.233190 -59.193750 185.731508 0.000000 0.000000 0.000000 -26.350684 7.331350 -5.024509 1.107930 6.687497 18.792704 0.879106 0.706002 -17.985997 0.000100 -0.065456 -0.179782 0.000000 0.000000 0.000000 17.457720 5.170472 -14.345491 -4.686402 -13.021714 39.449931 -2.219875 -3.558599 -29.594680 -0.021406 -0.944609 2.596290 -4.387238 -1.125609 -1.408929 -1.242647 -1.403142 1.239379 1.133430 -0.768405 2.138500 0.370848 -3.410360 -1.611112 4.182128 -4.615136 -0.312829 1.183419 -2.313009 0.265142 0.000000 0.000000 0.000000 1.588878 1.142976 -21.447945 12.456499 -20.485761 2.259489 18.943515 -16.892045 -8.917627 0.000000 0.000000 0.000000 -7.125000 0.000000 0.000000 -6.931950 39.309016 -0.977541 0.000000 0.000000 0.000000 -0.223913 4.300214 21.373361 -15.523976 -24.870914 -3.443332 -20.812291 1.599612 5.635108 0.000000 0.000000 0.000000 7.125000 0.000000 0.000000 4.940618 35.968538 1.100128
49.751269 15.958613 17.273579 -187.214307 -59.217543 185.702568 0.000000 0.000000 0.000000 -26.317720 7.285191 -5.020321 1.112708 6.701612 18.834484 0.880191 0.742617 -18.011414 0.000300 -0.107489 -0.295288 0.000000 0.000000 0.000000 17.504105 5.180203 -14.311280 -4.680440 -13.014587 39.423128 -2.219126 -3.612559 -29.614321 -0.020613 -0.927734 2.549951 -4.448163 -1.163764 -1.349550 -1.185512 -1.456241 1.238135 1.225587 -0.795377 2.109732 0.300964 -3.397853 -1.605383 4.165043 -4.597422 -0.266215 1.189604 -2.302879 0.279347 0.000000 0.000000 0.000000 1.487461 1.163156 -21.299191 12.502693 -20.554213 2.275699 18.872295 -16.905941 -8.923952 0.000000 0.000000 0.000000 -7.125000 0.000000 0.000000 -6.994297 39.310108 -0.986321 0.000000 0.000000 0.000000 -0.350602 4.302791 21.479668 -15.520513 -24.866226 -3.441900 -20.837565 1.600368 5.624503 0.000000 0.000000 0.000000 7.125000 0.000000 0.000000 4.918544 35.958624 1.096391
